<svg xmlns="http://www.w3.org/2000/svg" viewBox="0 0 800 500" width="800" height="500">
  <!-- Background -->
  <rect width="800" height="500" fill="#1A1A1A"/>
  
  <!-- Airport terminal silhouette -->
  <path d="M100,350 L100,200 L200,150 L600,150 L700,200 L700,350 Z" fill="#333333"/>
  <rect x="150" y="250" width="80" height="100" fill="#444444"/>
  <rect x="300" y="250" width="200" height="100" fill="#444444"/>
  <rect x="570" y="250" width="80" height="100" fill="#444444"/>
  
  <!-- Car -->
  <path d="M250,400 C250,380 260,365 300,365 L500,365 C540,365 550,380 550,400 L550,420 L250,420 Z" fill="#444444"/>
  <path d="M300,365 L330,335 L470,335 L500,365 Z" fill="#555555"/>
  <circle cx="300" cy="420" r="20" fill="#222222" stroke="#D4AF37" stroke-width="2"/>
  <circle cx="500" cy="420" r="20" fill="#222222" stroke="#D4AF37" stroke-width="2"/>
  
  <!-- Road -->
  <rect x="0" y="440" width="800" height="60" fill="#222222"/>
  <rect x="50" y="465" width="50" height="8" fill="#D4AF37"/>
  <rect x="150" y="465" width="50" height="8" fill="#D4AF37"/>
  <rect x="250" y="465" width="50" height="8" fill="#D4AF37"/>
  <rect x="350" y="465" width="50" height="8" fill="#D4AF37"/>
  <rect x="450" y="465" width="50" height="8" fill="#D4AF37"/>
  <rect x="550" y="465" width="50" height="8" fill="#D4AF37"/>
  <rect x="650" y="465" width="50" height="8" fill="#D4AF37"/>
  <rect x="750" y="465" width="50" height="8" fill="#D4AF37"/>
  
  <!-- Airplane -->
  <path d="M600,100 L650,80 L700,100 L650,120 Z" fill="#D4AF37" opacity="0.8"/>
  <path d="M600,100 L400,100 L350,110 L370,120 L600,120 Z" fill="#D4AF37" opacity="0.8"/>
  <path d="M500,100 L520,70 L540,70 L520,120 Z" fill="#D4AF37" opacity="0.8"/>
  
  <!-- Gold accents -->
  <rect x="100" y="200" width="600" height="1" fill="#D4AF37"/>
  <rect x="100" y="350" width="600" height="1" fill="#D4AF37"/>
  <rect x="0" y="440" width="800" height="1" fill="#D4AF37"/>
  
  <!-- Luxury effect overlay -->
  <rect width="800" height="500" fill="url(#airportGradient)" opacity="0.3"/>
  
  <!-- Definitions -->
  <defs>
    <linearGradient id="airportGradient" x1="0%" y1="0%" x2="100%" y2="100%">
      <stop offset="0%" stop-color="#D4AF37" stop-opacity="0.1"/>
      <stop offset="50%" stop-color="#D4AF37" stop-opacity="0"/>
      <stop offset="100%" stop-color="#D4AF37" stop-opacity="0.2"/>
    </linearGradient>
  </defs>
</svg>