<svg xmlns="http://www.w3.org/2000/svg" viewBox="0 0 800 500" width="800" height="500">
  <!-- Background -->
  <rect width="800" height="500" fill="#1A1A1A"/>
  
  <!-- Skyscraper silhouettes -->
  <rect x="100" y="100" width="100" height="300" fill="#333333"/>
  <rect x="210" y="150" width="80" height="250" fill="#333333"/>
  <rect x="300" y="50" width="120" height="350" fill="#444444"/>
  <rect x="430" y="150" width="70" height="250" fill="#333333"/>
  <rect x="510" y="100" width="90" height="300" fill="#333333"/>
  <rect x="610" y="170" width="60" height="230" fill="#333333"/>
  
  <!-- Windows -->
  <pattern id="buildingWindows" patternUnits="userSpaceOnUse" width="20" height="20" patternTransform="scale(0.5)">
    <rect width="15" height="15" fill="#D4AF37" opacity="0.2"/>
  </pattern>
  <rect x="110" y="110" width="80" height="280" fill="url(#buildingWindows)"/>
  <rect x="220" y="160" width="60" height="230" fill="url(#buildingWindows)"/>
  <rect x="310" y="60" width="100" height="330" fill="url(#buildingWindows)"/>
  <rect x="440" y="160" width="50" height="230" fill="url(#buildingWindows)"/>
  <rect x="520" y="110" width="70" height="280" fill="url(#buildingWindows)"/>
  <rect x="620" y="180" width="40" height="210" fill="url(#buildingWindows)"/>
  
  <!-- Luxury car -->
  <path d="M200,425 C200,415 210,400 250,400 L550,400 C590,400 600,415 600,425 L600,450 L200,450 Z" fill="#444444"/>
  <path d="M250,400 L300,370 L500,370 L550,400 Z" fill="#555555"/>
  <circle cx="275" cy="450" r="20" fill="#222222" stroke="#D4AF37" stroke-width="2"/>
  <circle cx="525" cy="450" r="20" fill="#222222" stroke="#D4AF37" stroke-width="2"/>
  
  <!-- Road -->
  <rect x="0" y="470" width="800" height="30" fill="#222222"/>
  <rect x="50" y="483" width="40" height="5" fill="#D4AF37"/>
  <rect x="140" y="483" width="40" height="5" fill="#D4AF37"/>
  <rect x="230" y="483" width="40" height="5" fill="#D4AF37"/>
  <rect x="320" y="483" width="40" height="5" fill="#D4AF37"/>
  <rect x="410" y="483" width="40" height="5" fill="#D4AF37"/>
  <rect x="500" y="483" width="40" height="5" fill="#D4AF37"/>
  <rect x="590" y="483" width="40" height="5" fill="#D4AF37"/>
  <rect x="680" y="483" width="40" height="5" fill="#D4AF37"/>
  
  <!-- Gold accents -->
  <rect x="0" y="470" width="800" height="1" fill="#D4AF37"/>
  <line x1="300" y1="50" x2="420" y2="50" stroke="#D4AF37" stroke-width="1"/>
  
  <!-- Luxury effect overlay -->
  <rect width="800" height="500" fill="url(#corporateGradient)" opacity="0.3"/>
  
  <!-- Definitions -->
  <defs>
    <linearGradient id="corporateGradient" x1="0%" y1="0%" x2="100%" y2="100%">
      <stop offset="0%" stop-color="#D4AF37" stop-opacity="0.1"/>
      <stop offset="50%" stop-color="#D4AF37" stop-opacity="0"/>
      <stop offset="100%" stop-color="#D4AF37" stop-opacity="0.2"/>
    </linearGradient>
  </defs>
</svg>