<svg xmlns="http://www.w3.org/2000/svg" viewBox="0 0 1200 600" width="1200" height="600">
  <!-- Background -->
  <rect width="1200" height="600" fill="#1A1A1A"/>
  
  <!-- Luxury car silhouette -->
  <path d="M200,400 C200,380 220,350 300,350 L900,350 C980,350 1000,380 1000,400 L1000,450 L200,450 Z" fill="#333333"/>
  <path d="M300,350 L350,300 L850,300 L900,350 Z" fill="#444444"/>
  <circle cx="350" cy="450" r="40" fill="#222222" stroke="#D4AF37" stroke-width="3"/>
  <circle cx="850" cy="450" r="40" fill="#222222" stroke="#D4AF37" stroke-width="3"/>
  
  <!-- Road -->
  <rect x="0" y="490" width="1200" height="110" fill="#222222"/>
  <rect x="50" y="545" width="100" height="10" fill="#D4AF37"/>
  <rect x="250" y="545" width="100" height="10" fill="#D4AF37"/>
  <rect x="450" y="545" width="100" height="10" fill="#D4AF37"/>
  <rect x="650" y="545" width="100" height="10" fill="#D4AF37"/>
  <rect x="850" y="545" width="100" height="10" fill="#D4AF37"/>
  <rect x="1050" y="545" width="100" height="10" fill="#D4AF37"/>
  
  <!-- Gold accents -->
  <rect x="0" y="490" width="1200" height="2" fill="#D4AF37"/>
  <rect x="200" y="400" width="800" height="2" fill="#D4AF37"/>
  <rect x="250" y="320" width="700" height="1" fill="#D4AF37"/>
  
  <!-- Luxury effect overlay -->
  <rect width="1200" height="600" fill="url(#luxuryGradient)" opacity="0.3"/>
  
  <!-- Definitions -->
  <defs>
    <linearGradient id="luxuryGradient" x1="0%" y1="0%" x2="100%" y2="100%">
      <stop offset="0%" stop-color="#D4AF37" stop-opacity="0.1"/>
      <stop offset="50%" stop-color="#D4AF37" stop-opacity="0"/>
      <stop offset="100%" stop-color="#D4AF37" stop-opacity="0.2"/>
    </linearGradient>
  </defs>
</svg>