<svg xmlns="http://www.w3.org/2000/svg" viewBox="0 0 800 500" width="800" height="500">
  <!-- Background -->
  <rect width="800" height="500" fill="#1A1A1A"/>
  
  <!-- Red carpet -->
  <rect x="350" y="100" width="100" height="350" fill="#640000"/>
  <rect x="345" y="100" width="5" height="350" fill="#D4AF37"/>
  <rect x="450" y="100" width="5" height="350" fill="#D4AF37"/>
  
  <!-- Velvet rope barriers -->
  <circle cx="330" cy="150" r="10" fill="#D4AF37"/>
  <circle cx="330" cy="250" r="10" fill="#D4AF37"/>
  <circle cx="330" cy="350" r="10" fill="#D4AF37"/>
  <circle cx="470" cy="150" r="10" fill="#D4AF37"/>
  <circle cx="470" cy="250" r="10" fill="#D4AF37"/>
  <circle cx="470" cy="350" r="10" fill="#D4AF37"/>
  
  <!-- Ropes -->
  <line x1="330" y1="150" x2="330" y2="250" stroke="#D4AF37" stroke-width="3"/>
  <line x1="330" y1="250" x2="330" y2="350" stroke="#D4AF37" stroke-width="3"/>
  <line x1="470" y1="150" x2="470" y2="250" stroke="#D4AF37" stroke-width="3"/>
  <line x1="470" y1="250" x2="470" y2="350" stroke="#D4AF37" stroke-width="3"/>
  
  <!-- Luxury sedan -->
  <path d="M250,425 C250,415 260,400 300,400 L500,400 C540,400 550,415 550,425 L550,450 L250,450 Z" fill="#333333"/>
  <path d="M300,400 L330,370 L470,370 L500,400 Z" fill="#444444"/>
  <circle cx="300" cy="450" r="15" fill="#222222" stroke="#D4AF37" stroke-width="2"/>
  <circle cx="500" cy="450" r="15" fill="#222222" stroke="#D4AF37" stroke-width="2"/>
  
  <!-- Chauffeur figure -->
  <circle cx="180" cy="400" r="20" fill="#333333"/>
  <rect x="170" y="420" width="20" height="30" fill="#333333"/>
  
  <!-- Spotlights -->
  <ellipse cx="400" cy="100" rx="250" ry="70" fill="#D4AF37" opacity="0.1"/>
  <ellipse cx="400" cy="100" rx="200" ry="50" fill="#D4AF37" opacity="0.1"/>
  <ellipse cx="400" cy="100" rx="150" ry="30" fill="#D4AF37" opacity="0.15"/>
  
  <!-- Gold accents -->
  <rect x="0" y="450" width="800" height="1" fill="#D4AF37"/>
  
  <!-- Stars (celebrity effect) -->
  <circle cx="200" cy="120" r="2" fill="#D4AF37"/>
  <circle cx="250" cy="80" r="2" fill="#D4AF37"/>
  <circle cx="600" cy="120" r="2" fill="#D4AF37"/>
  <circle cx="550" cy="80" r="2" fill="#D4AF37"/>
  <circle cx="150" cy="150" r="2" fill="#D4AF37"/>
  <circle cx="650" cy="150" r="2" fill="#D4AF37"/>
  
  <!-- Luxury effect overlay -->
  <rect width="800" height="500" fill="url(#vipGradient)" opacity="0.3"/>
  
  <!-- Definitions -->
  <defs>
    <linearGradient id="vipGradient" x1="0%" y1="0%" x2="100%" y2="100%">
      <stop offset="0%" stop-color="#D4AF37" stop-opacity="0.1"/>
      <stop offset="50%" stop-color="#D4AF37" stop-opacity="0"/>
      <stop offset="100%" stop-color="#D4AF37" stop-opacity="0.2"/>
    </linearGradient>
  </defs>
</svg>